<svg id="Layer_1" data-name="Layer 1" xmlns="http://www.w3.org/2000/svg" width="18" height="18" viewBox="0 0 18 18">
  <defs>
    <style>
      .cls-1 {
        fill: #585757;
        fill-rule: evenodd;
      }
    </style>
  </defs>
  <path id="Path_3" data-name="Path 3" class="cls-1" d="M9.42,2.62a24.39,24.39,0,0,1,3.2.09A3.88,3.88,0,0,1,14.13,3a3.08,3.08,0,0,1,1.51,1.51A3.87,3.87,0,0,1,15.91,6c0,.8.09,1.07.09,3.2a24.28,24.28,0,0,1-.09,3.19,3.92,3.92,0,0,1-.27,1.51,3.12,3.12,0,0,1-1.51,1.51,4.07,4.07,0,0,1-1.51.26c-.8,0-1.07.09-3.2.09a24.39,24.39,0,0,1-3.2-.09,4.07,4.07,0,0,1-1.51-.26A3.12,3.12,0,0,1,3.2,13.89a4.33,4.33,0,0,1-.27-1.51c0-.8-.09-1.07-.09-3.19A24.39,24.39,0,0,1,2.93,6a4.28,4.28,0,0,1,.27-1.5,3,3,0,0,1,.62-.89A1.52,1.52,0,0,1,4.71,3a3.88,3.88,0,0,1,1.51-.27,24.39,24.39,0,0,1,3.2-.09m0-1.42a25.78,25.78,0,0,0-3.29.09,5.39,5.39,0,0,0-1.95.36,3.54,3.54,0,0,0-1.43.88A3.64,3.64,0,0,0,1.86,4a4.08,4.08,0,0,0-.35,2,25.83,25.83,0,0,0-.09,3.29,25.67,25.67,0,0,0,.09,3.28,5.39,5.39,0,0,0,.36,1.95,3.44,3.44,0,0,0,.88,1.42,3.56,3.56,0,0,0,1.43.89,5.61,5.61,0,0,0,2,.35,25.83,25.83,0,0,0,3.29.09,25.78,25.78,0,0,0,3.29-.09,5.7,5.7,0,0,0,2-.35A3.78,3.78,0,0,0,17,14.42a5.65,5.65,0,0,0,.35-1.95c0-.89.09-1.16.09-3.28a25.83,25.83,0,0,0-.09-3.29A5.69,5.69,0,0,0,17,4a3.64,3.64,0,0,0-.89-1.42,3.54,3.54,0,0,0-1.43-.88,5.39,5.39,0,0,0-1.95-.36A25.78,25.78,0,0,0,9.42,1.2m0,3.91A4,4,0,0,0,5.33,9.05v.14A4.09,4.09,0,1,0,9.42,5.11h0m0,6.74A2.62,2.62,0,0,1,6.75,9.28V9.19A2.63,2.63,0,0,1,9.32,6.52h.1a2.63,2.63,0,0,1,2.67,2.57v.1a2.63,2.63,0,0,1-2.57,2.66h-.1M13.69,4a1,1,0,1,0,1,1h0a1,1,0,0,0-1-1"/>
</svg>
