<svg id="Layer_1" data-name="Layer 1" xmlns="http://www.w3.org/2000/svg" xmlns:xlink="http://www.w3.org/1999/xlink" width="50" height="50" viewBox="0 0 50 50">
  <defs>
    <style>
      .cls-1 {
        fill: none;
      }

      .cls-2 {
        clip-path: url(#clip-path);
      }

      .cls-3 {
        fill-rule: evenodd;
      }
    </style>
    <clipPath id="clip-path">
      <rect class="cls-1" x="7.5" y="10" width="35" height="35"/>
    </clipPath>
  </defs>
  <g class="cls-2">
    <g id="bag">
      <path id="Path_152" data-name="Path 152" class="cls-3" d="M29.38,25.31a2.06,2.06,0,0,0,1.93,2.19,1,1,0,0,0,.25,0,2.07,2.07,0,0,0,2.19-1.94,1,1,0,0,0,0-.25,2.05,2.05,0,0,0-1.94-2.18h-.25a2,2,0,0,0-2.18,1.93A1,1,0,0,0,29.38,25.31Zm-13.13,0a2.07,2.07,0,0,0,1.94,2.19,1,1,0,0,0,.25,0,2.07,2.07,0,0,0,2.19-1.94,2.18,2.18,0,0,0,0-.25,2.05,2.05,0,0,0-1.93-2.18h-.25a2.06,2.06,0,0,0-2.19,1.93Zm24.06-4.59L42.5,42.59a2.45,2.45,0,0,1-.66,1.75,1.69,1.69,0,0,1-1.53.66H9.69a1.69,1.69,0,0,1-1.53-.66,2.45,2.45,0,0,1-.66-1.75L9.69,20.72a2.33,2.33,0,0,1,2.19-2h4.37a8.75,8.75,0,0,1,17.5,0h4.37a2.33,2.33,0,0,1,2.19,2Zm-10.93-2H20.62a4.38,4.38,0,0,1,8.76,0Z"/>
    </g>
  </g>
</svg>
