<svg id="Layer_1" data-name="Layer 1" xmlns="http://www.w3.org/2000/svg" width="189.51" height="69.04" viewBox="0 0 189.51 69.04">
  <defs>
    <style>
      .cls-1 {
        isolation: isolate;
      }

      .cls-2 {
        fill: #050505;
      }

      .cls-3 {
        fill: #fddde3;
      }

      .cls-4 {
        fill: #5ea2a3;
      }

      .cls-5 {
        fill: #fff;
      }
    </style>
  </defs>
  <g id="button">
    <g id="Shop_nu" data-name="Shop nu" class="cls-1">
      <g class="cls-1">
        <path class="cls-2" d="M91.71,29.86a4.23,4.23,0,0,0-2.55-.72,6.43,6.43,0,0,0-1.24.12,3.58,3.58,0,0,0-1.08.42,2.21,2.21,0,0,0-.76.79,2.43,2.43,0,0,0-.28,1.23,1.58,1.58,0,0,0,.41,1.12,3,3,0,0,0,1.09.7,8.61,8.61,0,0,0,1.55.46l1.75.38c.59.14,1.18.31,1.75.5a5.89,5.89,0,0,1,1.55.76A3.87,3.87,0,0,1,95,36.84a3.81,3.81,0,0,1,.41,1.85,3.75,3.75,0,0,1-.54,2.05,4.4,4.4,0,0,1-1.37,1.38,5.93,5.93,0,0,1-1.88.78,9.27,9.27,0,0,1-2.07.24,8.84,8.84,0,0,1-2.39-.31,5.93,5.93,0,0,1-2-1,4.41,4.41,0,0,1-1.34-1.64,5.23,5.23,0,0,1-.5-2.36h1.89a3.47,3.47,0,0,0,.37,1.63,3.4,3.4,0,0,0,1,1.12,4,4,0,0,0,1.39.65,6.47,6.47,0,0,0,1.64.21A7.9,7.9,0,0,0,91,41.36a4.19,4.19,0,0,0,1.22-.43,2.53,2.53,0,0,0,.89-.83,2.5,2.5,0,0,0,.33-1.35A1.87,1.87,0,0,0,93,37.49a2.91,2.91,0,0,0-1.09-.78,7.73,7.73,0,0,0-1.54-.5l-1.76-.39c-.59-.13-1.18-.28-1.75-.46a6,6,0,0,1-1.54-.69,3.43,3.43,0,0,1-1.1-1.11,3.34,3.34,0,0,1-.4-1.72,3.85,3.85,0,0,1,1.69-3.32,5.33,5.33,0,0,1,1.74-.8,7.47,7.47,0,0,1,2-.26,8.17,8.17,0,0,1,2.15.27,4.93,4.93,0,0,1,1.73.86,4.06,4.06,0,0,1,1.17,1.48,5.26,5.26,0,0,1,.48,2.13H92.88A3.09,3.09,0,0,0,91.71,29.86Z"/>
        <path class="cls-2" d="M101.49,27.81v6.45h7.89V27.81h2v15h-2V35.94h-7.89v6.87h-2v-15Z"/>
        <path class="cls-2" d="M116,32.36a7.42,7.42,0,0,1,1.35-2.51,6.49,6.49,0,0,1,2.25-1.74,7.84,7.84,0,0,1,6.25,0,6.49,6.49,0,0,1,2.25,1.74,7.62,7.62,0,0,1,1.36,2.51,9.89,9.89,0,0,1,0,5.9,7.72,7.72,0,0,1-1.36,2.51,6.46,6.46,0,0,1-2.25,1.73,7.95,7.95,0,0,1-6.25,0,6.46,6.46,0,0,1-2.25-1.73A7.51,7.51,0,0,1,116,38.26a9.69,9.69,0,0,1,0-5.9Zm1.83,5.19a6.21,6.21,0,0,0,.93,2A4.79,4.79,0,0,0,120.32,41,5.5,5.5,0,0,0,125,41a4.7,4.7,0,0,0,1.61-1.42,6.21,6.21,0,0,0,.93-2,8.8,8.8,0,0,0,0-4.48,6.21,6.21,0,0,0-.93-2A4.7,4.7,0,0,0,125,29.67a4.9,4.9,0,0,0-6.32,1.42,6.21,6.21,0,0,0-.93,2,8.8,8.8,0,0,0,0,4.48Z"/>
        <path class="cls-2" d="M140.55,27.81A4.64,4.64,0,0,1,144,29a4.38,4.38,0,0,1,1.17,3.26A4.44,4.44,0,0,1,144,35.52a4.56,4.56,0,0,1-3.43,1.15H136v6.14h-2v-15ZM139.87,35a3.5,3.5,0,0,0,2.49-.69,2.61,2.61,0,0,0,.79-2.06,2.57,2.57,0,0,0-.79-2,3.65,3.65,0,0,0-2.49-.71H136V35Z"/>
        <path class="cls-2" d="M158.88,27.81,166.78,40h0V27.81h1.89v15h-2.19l-7.83-12h0v12h-1.89v-15Z"/>
        <path class="cls-2" d="M184.06,41.7a6.14,6.14,0,0,1-4.37,1.44,6.86,6.86,0,0,1-4.53-1.37,5.45,5.45,0,0,1-1.62-4.38V27.81h2v9.58a4.07,4.07,0,0,0,1.07,3,4.25,4.25,0,0,0,3.09,1,3.84,3.84,0,0,0,2.91-1,4.26,4.26,0,0,0,1-3V27.81h2v9.58A5.63,5.63,0,0,1,184.06,41.7Z"/>
      </g>
    </g>
    <g id="Path_38" data-name="Path 38">
      <path class="cls-3" d="M36.09,66.06A31,31,0,0,1,14.16,13.11,31.06,31.06,0,0,1,24,6.47,31,31,0,0,1,64.67,47.11a31,31,0,0,1-28.58,19Z"/>
      <path class="cls-4" d="M36.09,4.78A30.27,30.27,0,0,0,24.31,62.93,30.27,30.27,0,0,0,47.87,7.16,30,30,0,0,0,36.09,4.78m0-1.5A31.77,31.77,0,1,1,4.33,35,31.76,31.76,0,0,1,36.09,3.28Z"/>
    </g>
    <path id="noun_Arrow_Left_2682937" data-name="noun Arrow Left 2682937" class="cls-5" d="M37.45,25,46.51,34l1.8,1.8-1.8,1.8-9.06,9-1.8-1.8,7.78-7.77H23.33V34.57h20.1l-7.78-7.78Z"/>
  </g>
</svg>
