<svg id="Layer_1" data-name="Layer 1" xmlns="http://www.w3.org/2000/svg" xmlns:xlink="http://www.w3.org/1999/xlink" width="59.26" height="49.88" viewBox="0 0 59.26 49.88">
  <defs>
    <style>
      .cls-1 {
        fill: none;
      }

      .cls-2 {
        clip-path: url(#clip-path);
      }

      .cls-3 {
        fill: #fff;
        fill-rule: evenodd;
      }
    </style>
    <clipPath id="clip-path">
      <rect class="cls-1" x="12.13" y="9.94" width="35" height="35"/>
    </clipPath>
  </defs>
  <g class="cls-2">
    <g id="bag">
      <path id="Path_152" data-name="Path 152" class="cls-3" d="M34,25.25a2.07,2.07,0,0,0,1.93,2.19h.25a2.07,2.07,0,0,0,2.19-1.94,1,1,0,0,0,0-.25,2.05,2.05,0,0,0-1.94-2.18,1,1,0,0,0-.25,0A2.05,2.05,0,0,0,34,25,1,1,0,0,0,34,25.25Zm-13.13,0a2.07,2.07,0,0,0,1.94,2.19h.25a2.07,2.07,0,0,0,2.19-1.94v-.25a2.06,2.06,0,0,0-1.94-2.18,1,1,0,0,0-.25,0A2.06,2.06,0,0,0,20.88,25Zm24.06-4.59,2.19,21.87a2.49,2.49,0,0,1-.65,1.75,1.74,1.74,0,0,1-1.54.66H14.32a1.71,1.71,0,0,1-1.53-.66,2.45,2.45,0,0,1-.66-1.75l2.19-21.87a2.33,2.33,0,0,1,2.19-2h4.37a8.75,8.75,0,0,1,17.5,0h4.38a2.32,2.32,0,0,1,2.18,2ZM34,18.69H25.26a4.38,4.38,0,0,1,8.75,0Z"/>
    </g>
  </g>
</svg>
